<svg xmlns="http://www.w3.org/2000/svg" viewBox="0 0 1000 750" width="1000" height="750" preserveAspectRatio="xMidYMid slice">
  <defs>
    <linearGradient id="fw" x1="0" y1="0" x2="0" y2="1"><stop offset="0" stop-color="#F2EBE1"/><stop offset="1" stop-color="#E2D6C4"/></linearGradient>
    <linearGradient id="fs" x1="0" y1="0" x2="1" y2="0"><stop offset="0" stop-color="#B58353"/><stop offset="1" stop-color="#8C5F38"/></linearGradient>
  </defs>
  <rect width="1000" height="750" fill="url(#fw)"/>
  <rect y="644" width="1000" height="106" fill="#C6A47A"/>
  <g stroke="#A8875F" stroke-width="1.5" opacity=".45"><path d="M0 680H1000M0 716H1000M210 644v106M520 644v106M830 644v106"/></g>

  <!-- стеллаж -->
  <rect x="70" y="60" width="480" height="584" fill="url(#fs)"/>
  <rect x="84" y="74" width="452" height="556" fill="#3E2C20"/>
  <g fill="#A9743F">
    <rect x="84" y="200" width="452" height="12"/>
    <rect x="84" y="332" width="452" height="12"/>
    <rect x="84" y="464" width="452" height="12"/>
    <rect x="304" y="74" width="12" height="556"/>
  </g>
  <!-- книги -->
  <g>
    <rect x="100" y="124" width="16" height="76" fill="#C9A87C"/><rect x="120" y="112" width="14" height="88" fill="#5E7355"/>
    <rect x="138" y="132" width="18" height="68" fill="#EDE4D6"/><rect x="160" y="118" width="12" height="82" fill="#8593A0"/>
    <rect x="176" y="128" width="20" height="72" fill="#A9743F"/>
    <rect x="330" y="120" width="14" height="80" fill="#EDE4D6"/><rect x="348" y="134" width="18" height="66" fill="#C9A87C"/>
    <rect x="370" y="112" width="12" height="88" fill="#5E7355"/>
    <rect x="100" y="256" width="18" height="76" fill="#8593A0"/><rect x="122" y="270" width="14" height="62" fill="#EDE4D6"/>
    <rect x="140" y="248" width="16" height="84" fill="#A9743F"/>
    <rect x="340" y="262" width="120" height="70" rx="4" fill="#C9A87C"/>
    <rect x="100" y="398" width="130" height="66" rx="4" fill="#EDE4D6"/>
    <rect x="330" y="386" width="16" height="78" fill="#5E7355"/><rect x="352" y="402" width="14" height="62" fill="#EDE4D6"/>
    <rect x="372" y="392" width="18" height="72" fill="#8593A0"/>
    <rect x="100" y="520" width="150" height="110" rx="4" fill="#A9743F"/>
    <rect x="330" y="536" width="180" height="94" rx="4" fill="#8593A0" opacity=".8"/>
  </g>
  <!-- растение на полке -->
  <path d="M436 200c0-24 6-38 18-38s18 14 18 38z" fill="#2A211B"/>
  <path d="M454 162c-4-28 4-46 20-56" stroke="#5E7355" stroke-width="3" fill="none"/>
  <circle cx="474" cy="106" r="7" fill="#6E8562"/>

  <!-- стол -->
  <rect x="600" y="440" width="356" height="20" rx="5" fill="#C08A54"/>
  <rect x="600" y="460" width="356" height="8" fill="#000" opacity=".16"/>
  <g fill="#8A5C36"><rect x="628" y="468" width="20" height="176"/><rect x="908" y="468" width="20" height="176"/></g>
  <rect x="648" y="486" width="260" height="10" fill="#8A5C36" opacity=".8"/>
  <!-- лампа -->
  <path d="M672 440v-72h96" stroke="#2A211B" stroke-width="5" fill="none" stroke-linecap="round"/>
  <path d="M746 368a26 18 0 0 0 52 0z" fill="#2A211B"/>
  <circle cx="772" cy="392" r="6" fill="#E8B461"/>
  <!-- монитор/книга -->
  <rect x="820" y="376" width="110" height="64" rx="4" fill="#3A2C22"/>
  <rect x="828" y="384" width="94" height="48" rx="2" fill="#8593A0" opacity=".55"/>
  <!-- стул -->
  <rect x="700" y="500" width="120" height="16" rx="8" fill="#7B8A72"/>
  <rect x="706" y="404" width="108" height="96" rx="10" fill="#7B8A72"/>
  <g stroke="#3A2C22" stroke-width="8" stroke-linecap="round"><path d="M716 516v128M804 516v128"/></g>
</svg>
