<svg xmlns="http://www.w3.org/2000/svg" viewBox="0 0 1920 1200" width="1920" height="1200" preserveAspectRatio="xMidYMid slice">
  <defs>
    <linearGradient id="bg77" x1="0" y1="0" x2="1" y2="1">
      <stop offset="0%" stop-color="#7b5c44"/>
      <stop offset="45%" stop-color="#6d4a30"/>
      <stop offset="100%" stop-color="#5b3e28"/>
    </linearGradient>
    <filter id="warp77" x="-15%" y="-15%" width="130%" height="130%">
      <feTurbulence type="fractalNoise" baseFrequency="0.0025 0.05" numOctaves="5" seed="77" result="n"/>
      <feDisplacementMap in="SourceGraphic" in2="n" scale="26" xChannelSelector="R" yChannelSelector="G"/>
    </filter>
    <filter id="noise77" x="0" y="0" width="100%" height="100%">
      <feTurbulence type="fractalNoise" baseFrequency="0.9" numOctaves="3" seed="80"/>
      <feColorMatrix type="saturate" values="0"/>
    </filter>
    <radialGradient id="vig77" cx="50%" cy="42%" r="78%">
      <stop offset="55%" stop-color="#000" stop-opacity="0"/>
      <stop offset="100%" stop-color="#000" stop-opacity="0.30"/>
    </radialGradient>
  </defs>
  <rect width="1920" height="1200" fill="url(#bg77)"/>
  <g filter="url(#warp77)">
    
<rect x="-60" y="994.8" width="2040" height="1.2" fill="#38230f" opacity="0.115"/>    <rect x="-60" y="1180.4" width="2040" height="1.2" fill="#38230f" opacity="0.207"/>    <rect x="-60" y="747.0" width="2040" height="0.9" fill="#38230f" opacity="0.233"/>    <rect x="-60" y="-56.8" width="2040" height="1.2" fill="#a87a4e" opacity="0.059"/>    <rect x="-60" y="167.9" width="2040" height="0.9" fill="#a87a4e" opacity="0.217"/>    <rect x="-60" y="181.4" width="2040" height="1.2" fill="#38230f" opacity="0.089"/>    <rect x="-60" y="283.7" width="2040" height="1.6" fill="#38230f" opacity="0.118"/>    <rect x="-60" y="46.9" width="2040" height="0.9" fill="#a87a4e" opacity="0.28"/>    <rect x="-60" y="725.8" width="2040" height="2.4" fill="#a87a4e" opacity="0.075"/>    <rect x="-60" y="1236.4" width="2040" height="3.4" fill="#38230f" opacity="0.12"/>    <rect x="-60" y="55.9" width="2040" height="2.4" fill="#38230f" opacity="0.202"/>    <rect x="-60" y="971.7" width="2040" height="2.4" fill="#38230f" opacity="0.371"/>    <rect x="-60" y="767.7" width="2040" height="2.4" fill="#38230f" opacity="0.372"/>    <rect x="-60" y="639.2" width="2040" height="1.6" fill="#a87a4e" opacity="0.298"/>    <rect x="-60" y="640.9" width="2040" height="0.9" fill="#38230f" opacity="0.239"/>    <rect x="-60" y="122.6" width="2040" height="1.6" fill="#a87a4e" opacity="0.054"/>    <rect x="-60" y="8.9" width="2040" height="3.4" fill="#38230f" opacity="0.063"/>    <rect x="-60" y="1245.9" width="2040" height="0.6" fill="#38230f" opacity="0.134"/>    <rect x="-60" y="682.9" width="2040" height="1.6" fill="#38230f" opacity="0.068"/>    <rect x="-60" y="853.4" width="2040" height="0.6" fill="#38230f" opacity="0.099"/>    <rect x="-60" y="-37.3" width="2040" height="1.6" fill="#a87a4e" opacity="0.352"/>    <rect x="-60" y="931.0" width="2040" height="2.4" fill="#a87a4e" opacity="0.05"/>    <rect x="-60" y="133.3" width="2040" height="0.6" fill="#38230f" opacity="0.281"/>    <rect x="-60" y="819.9" width="2040" height="1.6" fill="#38230f" opacity="0.087"/>    <rect x="-60" y="568.2" width="2040" height="0.9" fill="#38230f" opacity="0.129"/>    <rect x="-60" y="1045.7" width="2040" height="0.9" fill="#38230f" opacity="0.104"/>    <rect x="-60" y="1204.9" width="2040" height="0.9" fill="#a87a4e" opacity="0.271"/>    <rect x="-60" y="1216.3" width="2040" height="2.4" fill="#38230f" opacity="0.285"/>    <rect x="-60" y="586.2" width="2040" height="1.2" fill="#a87a4e" opacity="0.247"/>    <rect x="-60" y="562.3" width="2040" height="1.6" fill="#38230f" opacity="0.147"/>    <rect x="-60" y="538.9" width="2040" height="0.9" fill="#38230f" opacity="0.056"/>    <rect x="-60" y="-12.9" width="2040" height="3.4" fill="#38230f" opacity="0.097"/>    <rect x="-60" y="1099.3" width="2040" height="2.4" fill="#38230f" opacity="0.117"/>    <rect x="-60" y="501.2" width="2040" height="0.6" fill="#38230f" opacity="0.364"/>    <rect x="-60" y="547.5" width="2040" height="1.6" fill="#a87a4e" opacity="0.226"/>    <rect x="-60" y="471.0" width="2040" height="3.4" fill="#38230f" opacity="0.191"/>    <rect x="-60" y="1080.9" width="2040" height="0.6" fill="#38230f" opacity="0.333"/>    <rect x="-60" y="1146.3" width="2040" height="1.2" fill="#a87a4e" opacity="0.37"/>    <rect x="-60" y="1259.7" width="2040" height="1.6" fill="#a87a4e" opacity="0.375"/>    <rect x="-60" y="805.2" width="2040" height="1.6" fill="#38230f" opacity="0.216"/>    <rect x="-60" y="1086.5" width="2040" height="1.6" fill="#a87a4e" opacity="0.37"/>    <rect x="-60" y="1053.4" width="2040" height="3.4" fill="#38230f" opacity="0.152"/>    <rect x="-60" y="831.2" width="2040" height="0.9" fill="#a87a4e" opacity="0.095"/>    <rect x="-60" y="858.8" width="2040" height="0.9" fill="#38230f" opacity="0.351"/>    <rect x="-60" y="680.6" width="2040" height="3.4" fill="#38230f" opacity="0.241"/>    <rect x="-60" y="1070.0" width="2040" height="2.4" fill="#38230f" opacity="0.09"/>    <rect x="-60" y="108.7" width="2040" height="0.9" fill="#38230f" opacity="0.265"/>    <rect x="-60" y="834.9" width="2040" height="3.4" fill="#a87a4e" opacity="0.256"/>    <rect x="-60" y="54.4" width="2040" height="3.4" fill="#38230f" opacity="0.149"/>    <rect x="-60" y="794.3" width="2040" height="3.4" fill="#38230f" opacity="0.33"/>    <rect x="-60" y="928.0" width="2040" height="0.9" fill="#a87a4e" opacity="0.214"/>    <rect x="-60" y="643.7" width="2040" height="0.6" fill="#38230f" opacity="0.192"/>    <rect x="-60" y="436.2" width="2040" height="0.9" fill="#a87a4e" opacity="0.063"/>    <rect x="-60" y="1005.7" width="2040" height="2.4" fill="#38230f" opacity="0.359"/>    <rect x="-60" y="1029.0" width="2040" height="2.4" fill="#38230f" opacity="0.344"/>    <rect x="-60" y="-0.5" width="2040" height="3.4" fill="#38230f" opacity="0.178"/>    <rect x="-60" y="175.4" width="2040" height="1.6" fill="#38230f" opacity="0.117"/>    <rect x="-60" y="913.2" width="2040" height="1.2" fill="#38230f" opacity="0.205"/>    <rect x="-60" y="702.2" width="2040" height="2.4" fill="#38230f" opacity="0.178"/>    <rect x="-60" y="674.9" width="2040" height="0.9" fill="#38230f" opacity="0.183"/>    <rect x="-60" y="977.6" width="2040" height="3.4" fill="#38230f" opacity="0.378"/>    <rect x="-60" y="822.6" width="2040" height="1.2" fill="#38230f" opacity="0.368"/>    <rect x="-60" y="604.1" width="2040" height="1.2" fill="#38230f" opacity="0.309"/>    <rect x="-60" y="408.1" width="2040" height="0.9" fill="#38230f" opacity="0.36"/>    <rect x="-60" y="132.1" width="2040" height="1.2" fill="#38230f" opacity="0.224"/>    <rect x="-60" y="339.2" width="2040" height="0.9" fill="#38230f" opacity="0.28"/>    <rect x="-60" y="715.7" width="2040" height="0.6" fill="#38230f" opacity="0.142"/>    <rect x="-60" y="-47.8" width="2040" height="1.2" fill="#38230f" opacity="0.242"/>    <rect x="-60" y="632.9" width="2040" height="1.6" fill="#a87a4e" opacity="0.278"/>    <rect x="-60" y="998.6" width="2040" height="3.4" fill="#a87a4e" opacity="0.195"/>    <rect x="-60" y="409.6" width="2040" height="1.6" fill="#a87a4e" opacity="0.352"/>    <rect x="-60" y="449.4" width="2040" height="2.4" fill="#a87a4e" opacity="0.192"/>    <rect x="-60" y="-28.1" width="2040" height="2.4" fill="#38230f" opacity="0.151"/>    <rect x="-60" y="614.8" width="2040" height="1.6" fill="#38230f" opacity="0.275"/>    <rect x="-60" y="41.0" width="2040" height="1.2" fill="#38230f" opacity="0.349"/>    <rect x="-60" y="290.9" width="2040" height="0.6" fill="#38230f" opacity="0.166"/>    <rect x="-60" y="528.4" width="2040" height="0.9" fill="#38230f" opacity="0.105"/>    <rect x="-60" y="328.1" width="2040" height="1.2" fill="#a87a4e" opacity="0.363"/>    <rect x="-60" y="815.4" width="2040" height="0.9" fill="#38230f" opacity="0.107"/>    <rect x="-60" y="-27.8" width="2040" height="2.4" fill="#38230f" opacity="0.083"/>    <rect x="-60" y="245.8" width="2040" height="3.4" fill="#38230f" opacity="0.261"/>    <rect x="-60" y="1172.1" width="2040" height="1.6" fill="#a87a4e" opacity="0.085"/>    <rect x="-60" y="1137.4" width="2040" height="0.6" fill="#a87a4e" opacity="0.06"/>    <rect x="-60" y="582.3" width="2040" height="1.2" fill="#38230f" opacity="0.184"/>    <rect x="-60" y="196.1" width="2040" height="1.2" fill="#38230f" opacity="0.221"/>    <rect x="-60" y="1093.1" width="2040" height="0.6" fill="#a87a4e" opacity="0.269"/>    <rect x="-60" y="1197.1" width="2040" height="3.4" fill="#a87a4e" opacity="0.104"/>    <rect x="-60" y="987.6" width="2040" height="1.2" fill="#38230f" opacity="0.166"/>    <rect x="-60" y="919.4" width="2040" height="2.4" fill="#38230f" opacity="0.079"/>    <rect x="-60" y="782.7" width="2040" height="3.4" fill="#a87a4e" opacity="0.267"/>    <rect x="-60" y="90.9" width="2040" height="1.6" fill="#38230f" opacity="0.198"/>    <rect x="-60" y="481.6" width="2040" height="1.6" fill="#38230f" opacity="0.082"/>    <rect x="-60" y="783.9" width="2040" height="0.9" fill="#a87a4e" opacity="0.144"/>    <rect x="-60" y="1201.2" width="2040" height="3.4" fill="#a87a4e" opacity="0.137"/>    <rect x="-60" y="422.4" width="2040" height="1.2" fill="#a87a4e" opacity="0.126"/>    <rect x="-60" y="-1.8" width="2040" height="2.4" fill="#a87a4e" opacity="0.132"/>    <rect x="-60" y="1030.3" width="2040" height="0.6" fill="#38230f" opacity="0.19"/>    <rect x="-60" y="211.9" width="2040" height="3.4" fill="#38230f" opacity="0.273"/>    <rect x="-60" y="734.4" width="2040" height="3.4" fill="#38230f" opacity="0.308"/>    <rect x="-60" y="250.9" width="2040" height="0.6" fill="#38230f" opacity="0.264"/>    <rect x="-60" y="701.7" width="2040" height="0.9" fill="#38230f" opacity="0.363"/>    <rect x="-60" y="480.1" width="2040" height="0.9" fill="#38230f" opacity="0.06"/>    <rect x="-60" y="164.4" width="2040" height="1.2" fill="#38230f" opacity="0.368"/>    <rect x="-60" y="679.3" width="2040" height="2.4" fill="#38230f" opacity="0.08"/>    <rect x="-60" y="1180.2" width="2040" height="2.4" fill="#a87a4e" opacity="0.082"/>    <rect x="-60" y="558.5" width="2040" height="0.9" fill="#38230f" opacity="0.355"/>    <rect x="-60" y="1094.6" width="2040" height="0.6" fill="#a87a4e" opacity="0.302"/>    <rect x="-60" y="1148.2" width="2040" height="1.2" fill="#38230f" opacity="0.355"/>    <rect x="-60" y="857.4" width="2040" height="2.4" fill="#38230f" opacity="0.135"/>    <rect x="-60" y="295.6" width="2040" height="0.9" fill="#a87a4e" opacity="0.186"/>    <rect x="-60" y="169.4" width="2040" height="0.6" fill="#a87a4e" opacity="0.233"/>    <rect x="-60" y="931.4" width="2040" height="3.4" fill="#a87a4e" opacity="0.112"/>    <rect x="-60" y="-17.2" width="2040" height="3.4" fill="#38230f" opacity="0.06"/>    <rect x="-60" y="515.1" width="2040" height="1.6" fill="#38230f" opacity="0.12"/>    <rect x="-60" y="103.0" width="2040" height="1.2" fill="#a87a4e" opacity="0.318"/>    <rect x="-60" y="1153.2" width="2040" height="0.9" fill="#38230f" opacity="0.259"/>    <rect x="-60" y="265.9" width="2040" height="1.2" fill="#38230f" opacity="0.275"/>    <rect x="-60" y="821.2" width="2040" height="0.6" fill="#38230f" opacity="0.089"/>    <rect x="-60" y="121.5" width="2040" height="1.6" fill="#38230f" opacity="0.086"/>    <rect x="-60" y="110.2" width="2040" height="3.4" fill="#38230f" opacity="0.323"/>    <rect x="-60" y="594.0" width="2040" height="0.6" fill="#38230f" opacity="0.284"/>    <rect x="-60" y="629.0" width="2040" height="3.4" fill="#38230f" opacity="0.192"/>    <rect x="-60" y="464.6" width="2040" height="0.6" fill="#38230f" opacity="0.116"/>    <rect x="-60" y="212.1" width="2040" height="1.6" fill="#38230f" opacity="0.086"/>    <rect x="-60" y="631.5" width="2040" height="2.4" fill="#38230f" opacity="0.314"/>    <rect x="-60" y="1148.4" width="2040" height="2.4" fill="#a87a4e" opacity="0.221"/>    <rect x="-60" y="158.5" width="2040" height="1.2" fill="#38230f" opacity="0.2"/>    <rect x="-60" y="28.2" width="2040" height="0.6" fill="#38230f" opacity="0.074"/>    <rect x="-60" y="999.3" width="2040" height="1.2" fill="#38230f" opacity="0.18"/>    <rect x="-60" y="632.7" width="2040" height="3.4" fill="#a87a4e" opacity="0.347"/>    <rect x="-60" y="480.3" width="2040" height="1.6" fill="#38230f" opacity="0.184"/>    <rect x="-60" y="1070.4" width="2040" height="3.4" fill="#a87a4e" opacity="0.063"/>    <rect x="-60" y="244.9" width="2040" height="0.6" fill="#a87a4e" opacity="0.225"/>    <rect x="-60" y="1250.2" width="2040" height="1.2" fill="#a87a4e" opacity="0.081"/>    <rect x="-60" y="227.5" width="2040" height="1.6" fill="#a87a4e" opacity="0.155"/>    <rect x="-60" y="314.7" width="2040" height="1.2" fill="#38230f" opacity="0.34"/>    <rect x="-60" y="-22.1" width="2040" height="3.4" fill="#38230f" opacity="0.266"/>    <rect x="-60" y="1230.6" width="2040" height="3.4" fill="#38230f" opacity="0.347"/>    <rect x="-60" y="568.2" width="2040" height="3.4" fill="#a87a4e" opacity="0.331"/>    <rect x="-60" y="1174.0" width="2040" height="3.4" fill="#a87a4e" opacity="0.07"/>    <rect x="-60" y="945.0" width="2040" height="1.6" fill="#38230f" opacity="0.326"/>    <rect x="-60" y="785.7" width="2040" height="2.4" fill="#38230f" opacity="0.283"/>    <rect x="-60" y="-42.7" width="2040" height="1.6" fill="#a87a4e" opacity="0.061"/>    <rect x="-60" y="1193.7" width="2040" height="1.6" fill="#a87a4e" opacity="0.173"/>    <rect x="-60" y="48.9" width="2040" height="0.6" fill="#a87a4e" opacity="0.225"/>    <rect x="-60" y="445.0" width="2040" height="1.2" fill="#38230f" opacity="0.349"/>    <rect x="-60" y="428.2" width="2040" height="3.4" fill="#38230f" opacity="0.367"/>    <rect x="-60" y="1221.8" width="2040" height="1.6" fill="#a87a4e" opacity="0.301"/>    <rect x="-60" y="716.4" width="2040" height="1.6" fill="#38230f" opacity="0.354"/>    <rect x="-60" y="702.2" width="2040" height="1.6" fill="#38230f" opacity="0.113"/>    <rect x="-60" y="1050.5" width="2040" height="0.6" fill="#38230f" opacity="0.081"/>    <rect x="-60" y="207.0" width="2040" height="1.2" fill="#38230f" opacity="0.14"/>    <rect x="-60" y="981.2" width="2040" height="1.2" fill="#a87a4e" opacity="0.371"/>    <rect x="-60" y="427.8" width="2040" height="2.4" fill="#38230f" opacity="0.345"/>    <rect x="-60" y="492.6" width="2040" height="1.6" fill="#38230f" opacity="0.175"/>    <rect x="-60" y="-6.8" width="2040" height="2.4" fill="#a87a4e" opacity="0.232"/>    <rect x="-60" y="1004.7" width="2040" height="2.4" fill="#38230f" opacity="0.246"/>    <rect x="-60" y="979.2" width="2040" height="3.4" fill="#38230f" opacity="0.12"/>    <rect x="-60" y="159.2" width="2040" height="1.6" fill="#38230f" opacity="0.09"/>    <rect x="-60" y="-37.7" width="2040" height="1.2" fill="#a87a4e" opacity="0.114"/>    <rect x="-60" y="453.5" width="2040" height="3.4" fill="#a87a4e" opacity="0.067"/>    <rect x="-60" y="756.1" width="2040" height="3.4" fill="#38230f" opacity="0.211"/>    <rect x="-60" y="1145.1" width="2040" height="1.6" fill="#38230f" opacity="0.086"/>    <rect x="-60" y="151.4" width="2040" height="1.2" fill="#38230f" opacity="0.055"/>    <rect x="-60" y="691.8" width="2040" height="0.9" fill="#a87a4e" opacity="0.207"/>    <rect x="-60" y="421.9" width="2040" height="0.6" fill="#a87a4e" opacity="0.287"/>    <rect x="-60" y="639.9" width="2040" height="0.9" fill="#38230f" opacity="0.096"/>    <rect x="-60" y="405.7" width="2040" height="0.6" fill="#38230f" opacity="0.135"/>    <rect x="-60" y="597.3" width="2040" height="1.2" fill="#38230f" opacity="0.281"/>    <rect x="-60" y="828.4" width="2040" height="1.6" fill="#a87a4e" opacity="0.38"/>    <rect x="-60" y="90.1" width="2040" height="0.6" fill="#38230f" opacity="0.149"/>    <rect x="-60" y="361.4" width="2040" height="1.6" fill="#38230f" opacity="0.08"/>    <rect x="-60" y="695.1" width="2040" height="0.9" fill="#38230f" opacity="0.148"/>    <rect x="-60" y="511.6" width="2040" height="0.6" fill="#38230f" opacity="0.224"/>    <rect x="-60" y="662.5" width="2040" height="0.9" fill="#38230f" opacity="0.111"/>    <rect x="-60" y="599.2" width="2040" height="3.4" fill="#38230f" opacity="0.121"/>    <rect x="-60" y="148.4" width="2040" height="1.2" fill="#38230f" opacity="0.116"/>    <rect x="-60" y="735.6" width="2040" height="0.6" fill="#38230f" opacity="0.19"/>    <rect x="-60" y="425.9" width="2040" height="0.9" fill="#a87a4e" opacity="0.084"/>    <rect x="-60" y="716.9" width="2040" height="2.4" fill="#a87a4e" opacity="0.127"/>    <rect x="-60" y="-14.6" width="2040" height="3.4" fill="#a87a4e" opacity="0.173"/>    <rect x="-60" y="1012.2" width="2040" height="1.2" fill="#38230f" opacity="0.074"/>    <rect x="-60" y="811.4" width="2040" height="0.6" fill="#a87a4e" opacity="0.255"/>    <rect x="-60" y="0.5" width="2040" height="2.4" fill="#38230f" opacity="0.339"/>    <rect x="-60" y="1087.1" width="2040" height="0.9" fill="#38230f" opacity="0.373"/>    <rect x="-60" y="1200.0" width="2040" height="3.4" fill="#38230f" opacity="0.347"/>    <rect x="-60" y="895.6" width="2040" height="0.6" fill="#38230f" opacity="0.351"/>    <rect x="-60" y="797.9" width="2040" height="0.9" fill="#a87a4e" opacity="0.274"/>    <rect x="-60" y="442.5" width="2040" height="3.4" fill="#a87a4e" opacity="0.268"/>    <rect x="-60" y="577.8" width="2040" height="1.6" fill="#38230f" opacity="0.107"/>
  </g>
  <g filter="url(#warp77)" opacity="0.55">
    
<ellipse cx="1022" cy="469" rx="6" ry="20" fill="none" stroke="#38230f" stroke-width="1.4" opacity="0.20"/>    <ellipse cx="1022" cy="469" rx="16" ry="43" fill="none" stroke="#38230f" stroke-width="2.1" opacity="0.16"/>    <ellipse cx="1022" cy="469" rx="23" ry="76" fill="none" stroke="#38230f" stroke-width="1.7" opacity="0.18"/>    <ellipse cx="1022" cy="469" rx="27" ry="60" fill="none" stroke="#38230f" stroke-width="1.4" opacity="0.17"/>    <ellipse cx="1022" cy="469" rx="39" ry="126" fill="none" stroke="#38230f" stroke-width="1.8" opacity="0.10"/>    <ellipse cx="1022" cy="469" rx="50" ry="131" fill="none" stroke="#38230f" stroke-width="1.1" opacity="0.12"/>    <ellipse cx="849" cy="731" rx="6" ry="11" fill="none" stroke="#38230f" stroke-width="1.8" opacity="0.10"/>    <ellipse cx="849" cy="731" rx="16" ry="53" fill="none" stroke="#38230f" stroke-width="1.1" opacity="0.23"/>    <ellipse cx="849" cy="731" rx="27" ry="68" fill="none" stroke="#38230f" stroke-width="1.3" opacity="0.19"/>    <ellipse cx="1576" cy="882" rx="6" ry="19" fill="none" stroke="#38230f" stroke-width="0.8" opacity="0.26"/>    <ellipse cx="1576" cy="882" rx="13" ry="36" fill="none" stroke="#38230f" stroke-width="2.1" opacity="0.19"/>    <ellipse cx="1576" cy="882" rx="27" ry="81" fill="none" stroke="#38230f" stroke-width="2.0" opacity="0.22"/>    <ellipse cx="1576" cy="882" rx="30" ry="66" fill="none" stroke="#38230f" stroke-width="1.7" opacity="0.23"/>    <ellipse cx="1576" cy="882" rx="27" ry="84" fill="none" stroke="#38230f" stroke-width="1.4" opacity="0.12"/>    <ellipse cx="1576" cy="882" rx="34" ry="102" fill="none" stroke="#38230f" stroke-width="1.4" opacity="0.09"/>
  </g>
  <rect width="1920" height="1200" filter="url(#noise77)" opacity="0.06" style="mix-blend-mode:overlay"/>
  <rect width="1920" height="1200" fill="url(#vig77)"/>
</svg>